<svg width="64" height="64" viewBox="0 0 64 64" fill="none" xmlns="http://www.w3.org/2000/svg">
<path fill-rule="evenodd" clip-rule="evenodd" d="M31.9879 63.988C49.6543 63.988 63.9758 49.6665 63.9758 32.0001C63.9758 25.2392 61.8783 18.9683 58.2986 13.8024L2.47098 44.3496C3.54045 46.9027 4.93153 49.2878 6.59354 51.454L41.9487 32.4403C43.744 31.4749 45.982 32.1475 46.9475 33.9428C47.913 35.7381 47.2403 37.9762 45.445 38.9416L11.9644 56.9472C17.4455 61.3522 24.4089 63.988 31.9879 63.988ZM0.399303 37.0685L53.2842 8.13148C47.6284 3.08167 40.1666 0.012207 31.9879 0.012207C14.3215 0.012207 0 14.3337 0 32.0001C0 33.7249 0.136506 35.4177 0.399303 37.0685Z" fill="white"/>
</svg>
